<svg width="149" height="149" viewBox="0 0 149 149" fill="none" xmlns="http://www.w3.org/2000/svg">
<circle cx="50.1633" cy="50.1633" r="50.1633" transform="matrix(-1 0 0 1 124.167 24.8333)" fill="#1E7715"/>
<circle opacity="0.5" cx="55.13" cy="55.13" r="53.63" transform="matrix(-1 0 0 1 129.133 19.8666)" stroke="#1E7715" stroke-width="3"/>
<path d="M68.4615 99.3333C67.0182 99.3361 65.6131 98.861 64.4583 97.9797L64.3867 97.9249L49.3108 86.1747C48.6126 85.6301 48.0266 84.9508 47.5862 84.1757C47.1459 83.4006 46.8599 82.5448 46.7444 81.6571C46.629 80.7695 46.6865 79.8674 46.9135 79.0023C47.1406 78.1372 47.5328 77.3262 48.0677 76.6154C48.6027 75.9047 49.2699 75.3082 50.0314 74.8599C50.7928 74.4117 51.6335 74.1205 52.5055 74.003C53.3774 73.8855 54.2636 73.944 55.1134 74.1751C55.9631 74.4062 56.7599 74.8055 57.4581 75.3501L67.2231 82.9724L90.2994 52.3362C90.8346 51.6257 91.5021 51.0294 92.2637 50.5814C93.0252 50.1334 93.866 49.8425 94.7381 49.7253C95.6101 49.6081 96.4962 49.667 97.3459 49.8984C98.1956 50.1299 98.9922 50.5295 99.6902 51.0743L99.5467 51.2726L99.6939 51.0772C101.102 52.1788 102.023 53.8039 102.256 55.5961C102.488 57.3883 102.012 59.2011 100.933 60.6369L73.7902 96.6724C73.1624 97.5028 72.3552 98.1748 71.431 98.6362C70.5069 99.0977 69.4908 99.3362 68.4615 99.3333Z" fill="#F2F2F2"/>
<ellipse cx="50.7783" cy="18.9727" rx="5.87348" ry="5.87348" fill="#1E7715"/>
<ellipse cx="29.9952" cy="16.2618" rx="3.16265" ry="3.16264" fill="#1E7715"/>
<ellipse cx="23.67" cy="40.6594" rx="3.16265" ry="3.16264" fill="#1E7715"/>
<ellipse cx="11.4712" cy="72.7377" rx="4.51806" ry="4.51806" fill="#1E7715"/>
<ellipse cx="13.73" cy="112.948" rx="3.16265" ry="3.16265" fill="#1E7715"/>
<ellipse cx="27.7363" cy="133.28" rx="4.51806" ry="4.51807" fill="#1E7715"/>
<ellipse cx="56.652" cy="135.991" rx="1.80723" ry="1.80722" fill="#1E7715"/>
<ellipse cx="80.5975" cy="140.96" rx="4.06626" ry="4.06626" fill="#1E7715"/>
<ellipse cx="100.929" cy="135.087" rx="2.71084" ry="2.71084" fill="#1E7715"/>
<circle cx="125.778" cy="124.695" r="4.06626" fill="#1E7715"/>
<circle cx="132.103" cy="105.719" r="2.25903" fill="#1E7715"/>
<ellipse cx="140.236" cy="88.5509" rx="2.25903" ry="2.25903" fill="#1E7715"/>
<ellipse cx="137.977" cy="54.6654" rx="4.51806" ry="4.51807" fill="#1E7715"/>
<ellipse cx="125.327" cy="49.2437" rx="2.71084" ry="2.71084" fill="#1E7715"/>
<ellipse cx="104.543" cy="24.8462" rx="2.71084" ry="2.71084" fill="#1E7715"/>
<ellipse cx="79.2421" cy="7.67751" rx="2.71084" ry="2.71084" fill="#1E7715"/>
<ellipse cx="121.712" cy="18.5209" rx="4.51807" ry="4.51806" fill="#1E7715"/>
</svg>
